<?xml version="1.0" encoding="UTF-8" standalone="no"?>
<!DOCTYPE svg PUBLIC "-//W3C//DTD SVG 1.1//EN" "http://www.w3.org/Graphics/SVG/1.1/DTD/svg11.dtd">
<!-- Generated by Microsoft Visio, SVG Export state_machine_diagram.svg Page-1 -->
<svg xmlns="http://www.w3.org/2000/svg" xmlns:xlink="http://www.w3.org/1999/xlink" xmlns:ev="http://www.w3.org/2001/xml-events"
		xmlns:v="http://schemas.microsoft.com/visio/2003/SVGExtensions/" width="8.26772in" height="11.6929in"
		viewBox="0 0 595.276 841.89" xml:space="preserve" color-interpolation-filters="sRGB" class="st15">
	<v:documentProperties v:langID="1033" v:metric="true" v:viewMarkup="false">
		<v:userDefs>
			<v:ud v:nameU="msvSubprocessMaster" v:prompt="" v:val="VT4(Rectangle)"/>
			<v:ud v:nameU="msvNoAutoConnect" v:val="VT0(1):26"/>
		</v:userDefs>
	</v:documentProperties>

	<style type="text/css">
	<![CDATA[
		.st1 {fill:#ffc000;stroke:#002060;stroke-width:2.25}
		.st2 {fill:#002060;font-family:Calibri;font-size:1.16666em}
		.st3 {fill:#002060;font-family:Calibri;font-size:1.16666em;font-weight:bold}
		.st4 {font-size:1em}
		.st5 {fill:#ffffff;stroke:#002060;stroke-width:2.25}
		.st6 {fill:#ffc000}
		.st7 {stroke:#002060;stroke-width:2.25}
		.st8 {marker-end:url(#mrkr4-42);stroke:#002060;stroke-linecap:round;stroke-linejoin:round;stroke-width:2.25}
		.st9 {fill:#002060;fill-opacity:1;stroke:#002060;stroke-opacity:1;stroke-width:0.47169811320755}
		.st10 {fill:#ffffff;stroke:none;stroke-linecap:butt;stroke-width:7.2}
		.st11 {fill:#002060;font-family:Calibri;font-size:1.00001em}
		.st12 {fill:#002060;font-family:Calibri;font-size:1.5em}
		.st13 {fill:none;stroke:none;stroke-width:0.25}
		.st14 {fill:#000000;font-family:Calibri;font-size:1.16666em}
		.st15 {fill:none;fill-rule:evenodd;font-size:12px;overflow:visible;stroke-linecap:square;stroke-miterlimit:3}
	]]>
	</style>

	<defs id="Markers">
		<g id="lend4">
			<path d="M 2 1 L 0 0 L 2 -1 L 2 1 " style="stroke:none"/>
		</g>
		<marker id="mrkr4-42" class="st9" v:arrowType="4" v:arrowSize="2" v:setback="4.24" refX="-4.24" orient="auto"
				markerUnits="strokeWidth" overflow="visible">
			<use xlink:href="#lend4" transform="scale(-2.12,-2.12) "/>
		</marker>
	</defs>
	<g v:mID="0" v:index="1" v:groupContext="foregroundPage">
		<v:userDefs>
			<v:ud v:nameU="msvThemeOrder" v:val="VT0(0):26"/>
		</v:userDefs>
		<title>Page-1</title>
		<v:pageProperties v:drawingScale="0.0393701" v:pageScale="0.0393701" v:drawingUnits="24" v:shadowOffsetX="8.50394"
				v:shadowOffsetY="-8.50394"/>
		<v:layer v:name="Connector" v:index="0"/>
		<g id="shape1-1" v:mID="1" v:groupContext="shape" transform="translate(262.823,-751.576)">
			<title>Initial state</title>
			<desc>STAND BY</desc>
			<v:userDefs>
				<v:ud v:nameU="visVersion" v:prompt="" v:val="VT0(15):26"/>
			</v:userDefs>
			<v:textBlock v:margins="rect(4,4,4,4)" v:tabSpace="42.5197"/>
			<v:textRect cx="22.7673" cy="854.291" width="67.78" height="24.8035"/>
			<ellipse cx="22.7673" cy="819.122" rx="22.7673" ry="22.7673" class="st1"/>
			<text x="-5.54" y="858.49" class="st2" v:langID="2052"><v:paragraph v:horizAlign="1"/><v:tabList/>STAND BY</text>		</g>
		<g id="group2-4" transform="translate(203.272,-538.598)" v:mID="2" v:groupContext="group">
			<v:userDefs>
				<v:ud v:nameU="visVersion" v:prompt="" v:val="VT0(15):26"/>
			</v:userDefs>
			<title>State with internal behavior</title>
			<g id="shape2-5" v:mID="2" v:groupContext="groupContent">
				<rect x="0" y="704.803" width="164.637" height="137.087" rx="8.50394" ry="8.50394" class="st1"/>
			</g>
			<g id="shape3-7" v:mID="3" v:groupContext="shape" transform="translate(0,-95.4833)">
				<title>Sheet.3</title>
				<desc>measuring State</desc>
				<v:userDefs>
					<v:ud v:nameU="UmlRole" v:prompt="" v:val="VT4(Title)"/>
				</v:userDefs>
				<v:textBlock v:margins="rect(4,4,4,4)" v:tabSpace="42.5197"/>
				<v:textRect cx="82.3184" cy="821.088" width="164.64" height="41.6033"/>
				<path d="M8.5 841.89 L156.13 841.89 A8.50394 8.50394 -180 0 0 164.64 833.39 L164.64 808.79 A8.50394 8.50394 -180
							 0 0 156.13 800.29 L8.5 800.29 A8.50394 8.50394 -180 0 0 0 808.79 L0 833.39 A8.50394 8.50394 -180 0 0
							 8.5 841.89 Z" class="st1"/>
				<text x="51.81" y="816.89" class="st3" v:langID="2052"><v:paragraph v:horizAlign="1"/><v:tabList/>measuring<v:newlineChar/><tspan
							x="67.18" dy="1.2em" class="st4">State</tspan></text>			</g>
			<g id="shape4-11" v:mID="4" v:groupContext="shape">
				<title>Sheet.4</title>
				<desc>Distance measure d Speed measure v Bike speed measure vb Info...</desc>
				<v:userDefs>
					<v:ud v:nameU="UmlRole" v:prompt="" v:val="VT4(Body)"/>
				</v:userDefs>
				<v:textBlock v:margins="rect(4,4,4,4)" v:tabSpace="42.5197"/>
				<v:textRect cx="82.3184" cy="784.008" width="164.64" height="75.203"/>
				<path d="M8.5 841.89 L156.13 841.89 A8.50394 8.50394 -180 0 0 164.64 833.39 L164.64 754.91 A8.50394 8.50394 -180
							 0 0 156.13 746.41 L8.5 746.41 A8.50394 8.50394 -180 0 0 0 754.91 L0 833.39 A8.50394 8.50394 -180 0 0
							 8.5 841.89 Z" class="st5"/>
				<text x="4" y="763.01" class="st2" v:langID="2052"><v:paragraph/><v:tabList/>Distance measure d<v:newlineChar/><tspan
							x="4" dy="1.2em" class="st4">Speed measure v<v:newlineChar/></tspan><tspan x="4" dy="1.2em" class="st4">Bike speed measure vb<v:newlineChar/></tspan><tspan
							x="4" dy="1.2em" class="st4">Info send to app</tspan></text>			</g>
		</g>
		<g id="shape5-17" v:mID="5" v:groupContext="shape" transform="translate(459.581,-235.517)">
			<title>Final state</title>
			<desc>OFF</desc>
			<v:userDefs>
				<v:ud v:nameU="visVersion" v:prompt="" v:val="VT0(15):26"/>
			</v:userDefs>
			<v:textBlock v:margins="rect(4,4,4,4)" v:tabSpace="42.5197"/>
			<v:textRect cx="22.7673" cy="854.291" width="33.31" height="24.8035"/>
			<path d="M40.98 819.12 A18.2138 18.2138 -180 1 0 4.55 819.12 A18.2138 18.2138 -180 1 0 40.98 819.12 Z" class="st6"/>
			<path d="M45.53 819.12 A22.7673 22.7673 -180 1 0 0 819.12 A22.7673 22.7673 -180 1 0 45.53 819.12" class="st7"/>
			<path d="M40.98 819.12 A18.2138 18.2138 -180 1 0 4.55 819.12 A18.2138 18.2138 -180 1 0 40.98 819.12" class="st7"/>
			<text x="11.7" y="858.49" class="st2" v:langID="2052"><v:paragraph v:horizAlign="1"/><v:tabList/>OFF</text>		</g>
		<g id="shape6-22" v:mID="6" v:groupContext="shape" transform="translate(262.823,-402.477)">
			<title>Choice</title>
			<v:userDefs>
				<v:ud v:nameU="visVersion" v:prompt="" v:val="VT0(15):26"/>
			</v:userDefs>
			<path d="M22.77 841.89 L45.53 819.12 L22.77 796.36 L0 819.12 L22.77 841.89 Z" class="st1"/>
		</g>
		<g id="group7-24" transform="translate(198.425,-189.741)" v:mID="7" v:groupContext="group">
			<v:userDefs>
				<v:ud v:nameU="visVersion" v:prompt="" v:val="VT0(15):26"/>
			</v:userDefs>
			<title>State with internal behavior.7</title>
			<g id="shape7-25" v:mID="7" v:groupContext="groupContent">
				<rect x="0" y="704.803" width="174.331" height="137.087" rx="8.50394" ry="8.50394" class="st1"/>
			</g>
			<g id="shape8-27" v:mID="8" v:groupContext="shape" transform="translate(0,-95.4833)">
				<title>Sheet.8</title>
				<desc>Capturing State</desc>
				<v:userDefs>
					<v:ud v:nameU="UmlRole" v:prompt="" v:val="VT4(Title)"/>
				</v:userDefs>
				<v:textBlock v:margins="rect(4,4,4,4)" v:tabSpace="42.5197"/>
				<v:textRect cx="87.1655" cy="821.088" width="174.34" height="41.6033"/>
				<path d="M8.5 841.89 L165.83 841.89 A8.50394 8.50394 -180 0 0 174.33 833.39 L174.33 808.79 A8.50394 8.50394 -180
							 0 0 165.83 800.29 L8.5 800.29 A8.50394 8.50394 -180 0 0 0 808.79 L0 833.39 A8.50394 8.50394 -180 0 0
							 8.5 841.89 Z" class="st1"/>
				<text x="58.78" y="816.89" class="st3" v:langID="2052"><v:paragraph v:horizAlign="1"/><v:tabList/>Capturing<v:newlineChar/><tspan
							x="72.02" dy="1.2em" class="st4">State</tspan></text>			</g>
			<g id="shape9-31" v:mID="9" v:groupContext="shape">
				<title>Sheet.9</title>
				<desc>Photo capture Car plate recognization Forward info to Firebas...</desc>
				<v:userDefs>
					<v:ud v:nameU="UmlRole" v:prompt="" v:val="VT4(Body)"/>
				</v:userDefs>
				<v:textBlock v:margins="rect(4,4,4,4)" v:tabSpace="42.5197"/>
				<v:textRect cx="87.1655" cy="784.008" width="174.34" height="75.203"/>
				<path d="M8.5 841.89 L165.83 841.89 A8.50394 8.50394 -180 0 0 174.33 833.39 L174.33 754.91 A8.50394 8.50394 -180
							 0 0 165.83 746.41 L8.5 746.41 A8.50394 8.50394 -180 0 0 0 754.91 L0 833.39 A8.50394 8.50394 -180 0 0
							 8.5 841.89 Z" class="st5"/>
				<text x="4" y="763.01" class="st2" v:langID="2052"><v:paragraph/><v:tabList/>Photo capture<v:newlineChar/><tspan
							x="4" dy="1.2em" class="st4">Car plate recognization<v:newlineChar/></tspan><tspan x="4" dy="1.2em"
							class="st4">Forward info to Firebase<v:newlineChar/></tspan><tspan x="4" dy="1.2em" class="st4">Plate num to app</tspan></text>			</g>
		</g>
		<g id="shape16-37" v:mID="16" v:groupContext="shape" v:layerMember="0" transform="translate(278.504,-751.576)">
			<title>Dynamic connector</title>
			<desc>Connection established between app and raspi</desc>
			<v:textBlock v:margins="rect(4,4,4,4)" v:tabSpace="42.5197"/>
			<v:textRect cx="7.08661" cy="879.835" width="239.11" height="22.4037"/>
			<path d="M7.09 841.89 L7.09 908.24" class="st8"/>
			<rect v:rectContext="textBkgnd" x="-107.108" y="872.635" width="228.389" height="14.4001" class="st10"/>
			<text x="-107.11" y="883.44" class="st11" v:langID="2052"><v:paragraph v:horizAlign="1"/><v:tabList/>Connection established between app and raspi</text>		</g>
		<g id="shape17-45" v:mID="17" v:groupContext="shape" v:layerMember="0" transform="translate(278.504,-538.598)">
			<title>Dynamic connector.17</title>
			<desc>If d&#60; Dis_t &#38;v &#62; Vel_t &#38;vb &#62; Vb_t</desc>
			<v:textBlock v:margins="rect(4,4,4,4)" v:tabSpace="42.5197"/>
			<v:textRect cx="7.08661" cy="887.183" width="76.7" height="58.4032"/>
			<path d="M7.09 841.89 L7.09 922.94" class="st8"/>
			<rect v:rectContext="textBkgnd" x="-24.6588" y="861.983" width="63.4911" height="50.3995" class="st10"/>
			<text x="-21.62" y="874.58" class="st2" v:langID="2052"><v:paragraph v:horizAlign="1"/><v:tabList/>If d&#60; Dis_t<v:newlineChar/><tspan
						x="-22.39" dy="1.2em" class="st4">&#38;v &#62; Vel_t <v:newlineChar/></tspan><tspan x="-24.66" dy="1.2em"
						class="st4">&#38;vb &#62; Vb_t </tspan> </text>		</g>
		<g id="shape18-54" v:mID="18" v:groupContext="shape" v:layerMember="0" transform="translate(278.504,-402.477)">
			<title>Dynamic connector.18</title>
			<desc>Yes</desc>
			<v:textBlock v:margins="rect(4,4,4,4)" v:tabSpace="42.5197"/>
			<v:textRect cx="7.08661" cy="879.715" width="90" height="29.6036"/>
			<path d="M7.09 841.89 L7.09 908" class="st8"/>
			<rect v:rectContext="textBkgnd" x="-5.29718" y="868.915" width="24.7676" height="21.5999" class="st10"/>
			<text x="-5.3" y="885.11" class="st12" v:langID="2052"><v:paragraph v:horizAlign="1"/><v:tabList/>Yes</text>		</g>
		<g id="shape20-61" v:mID="20" v:groupContext="shape" v:layerMember="0" transform="translate(262.823,-425.244)">
			<title>Dynamic connector.20</title>
			<desc>No</desc>
			<v:textBlock v:margins="rect(4,4,4,4)" v:tabSpace="42.5197"/>
			<v:textRect cx="-83.6917" cy="780.717" width="90" height="29.6036"/>
			<path d="M0 841.89 L-83.69 841.89 L-83.69 659.99 L-69.09 659.99" class="st8"/>
			<rect v:rectContext="textBkgnd" x="-94.2474" y="769.917" width="21.1113" height="21.5999" class="st10"/>
			<text x="-94.25" y="786.12" class="st12" v:langID="2052"><v:paragraph v:horizAlign="1"/><v:tabList/>No</text>		</g>
		<g id="shape21-68" v:mID="21" v:groupContext="shape" v:layerMember="0" transform="translate(367.909,-607.142)">
			<title>Dynamic connector.21</title>
			<desc>Power off</desc>
			<v:textBlock v:margins="rect(4,4,4,4)" v:tabSpace="42.5197"/>
			<v:textRect cx="114.44" cy="947.715" width="60.01" height="22.4037"/>
			<path d="M0 841.89 L114.44 841.89 L114.44 1158.44" class="st8"/>
			<rect v:rectContext="textBkgnd" x="90.6271" y="940.515" width="47.6249" height="14.4001" class="st10"/>
			<text x="90.63" y="951.32" class="st11" v:langID="2052"><v:paragraph v:horizAlign="1"/><v:tabList/>Power off</text>		</g>
		<g id="shape23-75" v:mID="23" v:groupContext="shape" v:layerMember="0" transform="translate(193.762,-258.284)">
			<title>Dynamic connector.23</title>
			<desc>Wait for 3 secs for a new car</desc>
			<v:textBlock v:margins="rect(4,4,4,4)" v:tabSpace="42.5197"/>
			<v:textRect cx="-57.1501" cy="665.038" width="85.46" height="36.8038"/>
			<path d="M4.66 841.89 L-57.15 841.89 L-57.15 493.03 L-0.03 493.03" class="st8"/>
			<rect v:rectContext="textBkgnd" x="-93.1619" y="650.638" width="72.0236" height="28.8001" class="st10"/>
			<text x="-93.16" y="661.44" class="st11" v:langID="2052"><v:paragraph v:horizAlign="1"/><v:tabList/>Wait for 3 secs <v:newlineChar/><tspan
						x="-89.11" dy="1.2em" class="st4">for a new car</tspan></text>		</g>
		<g id="shape24-83" v:mID="24" v:groupContext="shape" v:layerMember="0" transform="translate(372.756,-251.198)">
			<title>Dynamic connector.24</title>
			<desc>Power off</desc>
			<v:textBlock v:margins="rect(4,4,4,4)" v:tabSpace="42.5197"/>
			<v:textRect cx="43.4126" cy="834.803" width="60.01" height="22.4037"/>
			<path d="M0 834.8 L77.29 834.8" class="st8"/>
			<rect v:rectContext="textBkgnd" x="19.6001" y="827.603" width="47.6249" height="14.4001" class="st10"/>
			<text x="19.6" y="838.4" class="st11" v:langID="2052"><v:paragraph v:horizAlign="1"/><v:tabList/>Power off</text>		</g>
		<g id="shape27-90" v:mID="27" v:groupContext="shape" transform="translate(18,-70.8661)">
			<title>Sheet.27</title>
			<desc>In this state machine diagram. Dis_t is the relative distance...</desc>
			<v:textBlock v:margins="rect(4,4,4,4)" v:tabSpace="42.5197"/>
			<v:textRect cx="279.638" cy="795.073" width="559.28" height="93.6334"/>
			<rect x="0" y="748.256" width="559.276" height="93.6334" class="st13"/>
			<text x="4" y="740.47" class="st14" v:langID="2052"><v:paragraph/><v:tabList/>In this state machine diagram.<v:newlineChar/><v:newlineChar/><tspan
						x="4" dy="2.4em" class="st4">Dis_t is the relative distance threshold(max.) between car and bike that triggers photo capture.<v:newlineChar/><v:newlineChar/></tspan><tspan
						x="4" dy="2.4em" class="st4">Vel_t is the relative speed threshold(min.) between car and bike that triggers photo capture.<v:newlineChar/><v:newlineChar/></tspan><tspan
						x="4" dy="2.4em" class="st4">Vb_t is the threshold speed of bike which ensure that when photo capture is triggered, the bike </tspan><tspan
						x="4" dy="1.2em" class="st4">is moving with a minimum speed, instead of being pushed or stand still.</tspan></text>		</g>
	</g>
</svg>
