<?xml version="1.0" encoding="UTF-8" standalone="no"?>
<!DOCTYPE svg PUBLIC "-//W3C//DTD SVG 1.1//EN" "http://www.w3.org/Graphics/SVG/1.1/DTD/svg11.dtd">
<!-- Generated by Microsoft Visio, SVG Export state_machine_diagram.svg Page-1 -->
<svg xmlns="http://www.w3.org/2000/svg" xmlns:xlink="http://www.w3.org/1999/xlink" xmlns:ev="http://www.w3.org/2001/xml-events"
		xmlns:v="http://schemas.microsoft.com/visio/2003/SVGExtensions/" width="8.26772in" height="11.6929in"
		viewBox="0 0 595.276 841.89" xml:space="preserve" color-interpolation-filters="sRGB" class="st14">
	<v:documentProperties v:langID="1033" v:metric="true" v:viewMarkup="false">
		<v:userDefs>
			<v:ud v:nameU="msvSubprocessMaster" v:prompt="" v:val="VT4(Rectangle)"/>
			<v:ud v:nameU="msvNoAutoConnect" v:val="VT0(1):26"/>
		</v:userDefs>
	</v:documentProperties>

	<style type="text/css">
	<![CDATA[
		.st1 {fill:#ffc000;stroke:#002060;stroke-width:2.25}
		.st2 {fill:#002060;font-family:Calibri;font-size:1.5em}
		.st3 {fill:#002060;font-family:Calibri;font-size:1.5em;font-weight:bold}
		.st4 {font-size:1em}
		.st5 {fill:#ffffff;stroke:#002060;stroke-width:2.25}
		.st6 {fill:#ffc000}
		.st7 {stroke:#002060;stroke-width:2.25}
		.st8 {marker-end:url(#mrkr4-42);stroke:#002060;stroke-linecap:round;stroke-linejoin:round;stroke-width:2.25}
		.st9 {fill:#002060;fill-opacity:1;stroke:#002060;stroke-opacity:1;stroke-width:0.47169811320755}
		.st10 {fill:#ffffff;stroke:none;stroke-linecap:butt;stroke-width:7.2}
		.st11 {fill:#002060;font-family:Calibri;font-size:1.16666em}
		.st12 {fill:#ffffff;stroke:none;stroke-linecap:butt}
		.st13 {fill:#002060;font-family:Calibri;font-size:1.99999em}
		.st14 {fill:none;fill-rule:evenodd;font-size:12px;overflow:visible;stroke-linecap:square;stroke-miterlimit:3}
	]]>
	</style>

	<defs id="Markers">
		<g id="lend4">
			<path d="M 2 1 L 0 0 L 2 -1 L 2 1 " style="stroke:none"/>
		</g>
		<marker id="mrkr4-42" class="st9" v:arrowType="4" v:arrowSize="2" v:setback="4.24" refX="-4.24" orient="auto"
				markerUnits="strokeWidth" overflow="visible">
			<use xlink:href="#lend4" transform="scale(-2.12,-2.12) "/>
		</marker>
	</defs>
	<g v:mID="0" v:index="1" v:groupContext="foregroundPage">
		<v:userDefs>
			<v:ud v:nameU="msvThemeOrder" v:val="VT0(0):26"/>
		</v:userDefs>
		<title>Page-1</title>
		<v:pageProperties v:drawingScale="0.0393701" v:pageScale="0.0393701" v:drawingUnits="24" v:shadowOffsetX="8.50394"
				v:shadowOffsetY="-8.50394"/>
		<v:layer v:name="Connector" v:index="0"/>
		<g id="shape1-1" v:mID="1" v:groupContext="shape" transform="translate(265.947,-744.609)">
			<title>Initial state</title>
			<desc>STAND BY</desc>
			<v:userDefs>
				<v:ud v:nameU="visVersion" v:prompt="" v:val="VT0(15):26"/>
			</v:userDefs>
			<v:textBlock v:margins="rect(4,4,4,4)" v:tabSpace="42.5197"/>
			<v:textRect cx="26.2509" cy="856.692" width="84.86" height="29.6036"/>
			<ellipse cx="26.2509" cy="815.639" rx="26.2509" ry="26.2509" class="st1"/>
			<text x="-10.14" y="862.09" class="st2" v:langID="2052"><v:paragraph v:horizAlign="1"/><v:tabList/>STAND BY</text>		</g>
		<g id="group2-4" transform="translate(197.284,-499.044)" v:mID="2" v:groupContext="group">
			<v:userDefs>
				<v:ud v:nameU="visVersion" v:prompt="" v:val="VT0(15):26"/>
			</v:userDefs>
			<title>State with internal behavior</title>
			<g id="shape2-5" v:mID="2" v:groupContext="groupContent">
				<rect x="0" y="683.828" width="189.828" height="158.062" rx="8.50394" ry="8.50394" class="st1"/>
			</g>
			<g id="shape3-7" v:mID="3" v:groupContext="shape" transform="translate(0,-106.858)">
				<title>Sheet.3</title>
				<desc>measuring State</desc>
				<v:userDefs>
					<v:ud v:nameU="UmlRole" v:prompt="" v:val="VT4(Title)"/>
				</v:userDefs>
				<v:textBlock v:margins="rect(4,4,4,4)" v:tabSpace="42.5197"/>
				<v:textRect cx="94.9138" cy="816.288" width="189.83" height="51.2036"/>
				<path d="M8.5 841.89 L181.32 841.89 A8.50394 8.50394 -180 0 0 189.83 833.39 L189.83 799.19 A8.50394 8.50394 -180
							 0 0 181.32 790.69 L8.5 790.69 A8.50394 8.50394 -180 0 0 -0 799.19 L0 833.39 A8.50394 8.50394 -180 0
							 0 8.5 841.89 Z" class="st1"/>
				<text x="55.69" y="810.89" class="st3" v:langID="2052"><v:paragraph v:horizAlign="1"/><v:tabList/>measuring<v:newlineChar/><tspan
							x="75.45" dy="1.2em" class="st4">State</tspan></text>			</g>
			<g id="shape4-11" v:mID="4" v:groupContext="shape">
				<title>Sheet.4</title>
				<desc>Distance measure d Speed measure v Bike speed measure vb Info...</desc>
				<v:userDefs>
					<v:ud v:nameU="UmlRole" v:prompt="" v:val="VT4(Body)"/>
				</v:userDefs>
				<v:textBlock v:margins="rect(4,4,4,4)" v:tabSpace="42.5197"/>
				<v:textRect cx="94.9138" cy="782.233" width="189.83" height="94.4036"/>
				<path d="M8.5 841.89 L181.32 841.89 A8.50394 8.50394 -180 0 0 189.83 833.39 L189.83 743.54 A8.50394 8.50394 -180
							 0 0 181.32 735.03 L8.5 735.03 A8.50394 8.50394 -180 0 0 -0 743.54 L0 833.39 A8.50394 8.50394 -180 0
							 0 8.5 841.89 Z" class="st5"/>
				<text x="4" y="755.23" class="st2" v:langID="2052"><v:paragraph/><v:tabList/>Distance measure d<v:newlineChar/><tspan
							x="4" dy="1.2em" class="st4">Speed measure v<v:newlineChar/></tspan><tspan x="4" dy="1.2em" class="st4">Bike speed measure vb<v:newlineChar/></tspan><tspan
							x="4" dy="1.2em" class="st4">Info send to app</tspan></text>			</g>
		</g>
		<g id="shape5-17" v:mID="5" v:groupContext="shape" transform="translate(492.811,-149.588)">
			<title>Final state</title>
			<desc>OFF</desc>
			<v:userDefs>
				<v:ud v:nameU="visVersion" v:prompt="" v:val="VT0(15):26"/>
			</v:userDefs>
			<v:textBlock v:margins="rect(4,4,4,4)" v:tabSpace="42.5197"/>
			<v:textRect cx="26.2509" cy="856.692" width="40.54" height="29.6036"/>
			<path d="M47.25 815.64 A21.0007 21.0007 -180 1 0 5.25 815.64 A21.0007 21.0007 -180 1 0 47.25 815.64 Z" class="st6"/>
			<path d="M52.5 815.64 A26.2509 26.2509 -180 1 0 0 815.64 A26.2509 26.2509 -180 1 0 52.5 815.64" class="st7"/>
			<path d="M47.25 815.64 A21.0007 21.0007 -180 1 0 5.25 815.64 A21.0007 21.0007 -180 1 0 47.25 815.64" class="st7"/>
			<text x="12.02" y="862.09" class="st2" v:langID="2052"><v:paragraph v:horizAlign="1"/><v:tabList/>OFF</text>		</g>
		<g id="shape6-22" v:mID="6" v:groupContext="shape" transform="translate(265.947,-342.095)">
			<title>Choice</title>
			<v:userDefs>
				<v:ud v:nameU="visVersion" v:prompt="" v:val="VT0(15):26"/>
			</v:userDefs>
			<path d="M26.25 841.89 L52.5 815.64 L26.25 789.39 L0 815.64 L26.25 841.89 Z" class="st1"/>
		</g>
		<g id="group7-24" transform="translate(191.695,-96.808)" v:mID="7" v:groupContext="group">
			<v:userDefs>
				<v:ud v:nameU="visVersion" v:prompt="" v:val="VT0(15):26"/>
			</v:userDefs>
			<title>State with internal behavior.7</title>
			<g id="shape7-25" v:mID="7" v:groupContext="groupContent">
				<rect x="0" y="683.828" width="201.005" height="158.062" rx="8.50394" ry="8.50394" class="st1"/>
			</g>
			<g id="shape8-27" v:mID="8" v:groupContext="shape" transform="translate(0,-106.858)">
				<title>Sheet.8</title>
				<desc>Capturing State</desc>
				<v:userDefs>
					<v:ud v:nameU="UmlRole" v:prompt="" v:val="VT4(Title)"/>
				</v:userDefs>
				<v:textBlock v:margins="rect(4,4,4,4)" v:tabSpace="42.5197"/>
				<v:textRect cx="100.503" cy="816.288" width="201.01" height="51.2036"/>
				<path d="M8.5 841.89 L192.5 841.89 A8.50394 8.50394 -180 0 0 201.01 833.39 L201.01 799.19 A8.50394 8.50394 -180 0
							 0 192.5 790.69 L8.5 790.69 A8.50394 8.50394 -180 0 0 -0 799.19 L0 833.39 A8.50394 8.50394 -180 0 0 8.5
							 841.89 Z" class="st1"/>
				<text x="64.01" y="810.89" class="st3" v:langID="2052"><v:paragraph v:horizAlign="1"/><v:tabList/>Capturing<v:newlineChar/><tspan
							x="81.03" dy="1.2em" class="st4">State</tspan></text>			</g>
			<g id="shape9-31" v:mID="9" v:groupContext="shape">
				<title>Sheet.9</title>
				<desc>Photo capture Car plate recognization Forward info to Firebas...</desc>
				<v:userDefs>
					<v:ud v:nameU="UmlRole" v:prompt="" v:val="VT4(Body)"/>
				</v:userDefs>
				<v:textBlock v:margins="rect(4,4,4,4)" v:tabSpace="42.5197"/>
				<v:textRect cx="100.503" cy="782.233" width="201.01" height="94.4036"/>
				<path d="M8.5 841.89 L192.5 841.89 A8.50394 8.50394 -180 0 0 201.01 833.39 L201.01 743.54 A8.50394 8.50394 -180 0
							 0 192.5 735.03 L8.5 735.03 A8.50394 8.50394 -180 0 0 -0 743.54 L0 833.39 A8.50394 8.50394 -180 0 0 8.5
							 841.89 Z" class="st5"/>
				<text x="4" y="755.23" class="st2" v:langID="2052"><v:paragraph/><v:tabList/>Photo capture<v:newlineChar/><tspan
							x="4" dy="1.2em" class="st4">Car plate recognization<v:newlineChar/></tspan><tspan x="4" dy="1.2em"
							class="st4">Forward info to Firebase<v:newlineChar/></tspan><tspan x="4" dy="1.2em" class="st4">Plate num to app</tspan></text>			</g>
		</g>
		<g id="shape16-37" v:mID="16" v:groupContext="shape" v:layerMember="0" transform="translate(285.111,-744.609)">
			<title>Dynamic connector</title>
			<desc>Connection established between app and raspi</desc>
			<v:textBlock v:margins="rect(4,4,4,4)" v:tabSpace="42.5197"/>
			<v:textRect cx="7.08661" cy="885.641" width="277.62" height="24.8035"/>
			<path d="M7.09 841.89 L7.09 919.85" class="st8"/>
			<rect v:rectContext="textBkgnd" x="-126.138" y="877.242" width="266.449" height="16.8" class="st10"/>
			<text x="-126.14" y="889.84" class="st11" v:langID="2052"><v:paragraph v:horizAlign="1"/><v:tabList/>Connection established between app and raspi</text>		</g>
		<g id="shape17-45" v:mID="17" v:groupContext="shape" v:layerMember="0" transform="translate(285.111,-499.044)">
			<title>Dynamic connector.17</title>
			<desc>If d&#60; Dis_t &#38;v &#62; Vel_t &#38;vb &#62; Vb_t</desc>
			<v:textBlock v:margins="rect(4,4,4,4)" v:tabSpace="42.5197"/>
			<v:textRect cx="7.08661" cy="894.113" width="95.97" height="72.8036"/>
			<path d="M7.09 841.89 L7.09 936.8" class="st8"/>
			<rect v:rectContext="textBkgnd" x="-33.7297" y="861.714" width="81.6328" height="64.7998" class="st10"/>
			<text x="-29.83" y="877.91" class="st2" v:langID="2052"><v:paragraph v:horizAlign="1"/><v:tabList/>If d&#60; Dis_t<v:newlineChar/><tspan
						x="-30.82" dy="1.2em" class="st4">&#38;v &#62; Vel_t <v:newlineChar/></tspan><tspan x="-33.73" dy="1.2em"
						class="st4">&#38;vb &#62; Vb_t </tspan> </text>		</g>
		<g id="shape18-54" v:mID="18" v:groupContext="shape" v:layerMember="0" transform="translate(285.111,-342.095)">
			<title>Dynamic connector.18</title>
			<desc>Yes</desc>
			<v:textBlock v:margins="rect(4,4,4,4)" v:tabSpace="42.5197"/>
			<v:textRect cx="7.08661" cy="885.502" width="120.01" height="36.8035"/>
			<path d="M7.09 841.89 L7.09 919.57" class="st8"/>
			<rect v:rectContext="textBkgnd" x="-9.42483" y="871.102" width="33.0233" height="28.7998" class="st12"/>
			<text x="-9.42" y="892.7" class="st13" v:langID="2052"><v:paragraph v:horizAlign="1"/><v:tabList/>Yes</text>		</g>
		<g id="shape20-61" v:mID="20" v:groupContext="shape" v:layerMember="0" transform="translate(265.947,-368.346)">
			<title>Dynamic connector.20</title>
			<desc>No</desc>
			<v:textBlock v:margins="rect(4,4,4,4)" v:tabSpace="42.5197"/>
			<v:textRect cx="-94.2587" cy="771.357" width="120.01" height="36.8035"/>
			<path d="M0 841.89 L-94.26 841.89 L-94.26 632.16 L-78.2 632.16" class="st8"/>
			<rect v:rectContext="textBkgnd" x="-108.333" y="756.957" width="28.1483" height="28.7998" class="st10"/>
			<text x="-108.33" y="778.56" class="st13" v:langID="2052"><v:paragraph v:horizAlign="1"/><v:tabList/>No</text>		</g>
		<g id="shape21-68" v:mID="21" v:groupContext="shape" v:layerMember="0" transform="translate(387.112,-578.075)">
			<title>Dynamic connector.21</title>
			<desc>Power off</desc>
			<v:textBlock v:margins="rect(4,4,4,4)" v:tabSpace="42.5197"/>
			<v:textRect cx="131.95" cy="963.907" width="70" height="24.8035"/>
			<path d="M0 841.89 L131.95 841.89 L131.95 1208.33" class="st8"/>
			<rect v:rectContext="textBkgnd" x="104.169" y="955.508" width="55.562" height="16.8" class="st10"/>
			<text x="104.17" y="968.11" class="st11" v:langID="2052"><v:paragraph v:horizAlign="1"/><v:tabList/>Power off</text>		</g>
		<g id="shape23-75" v:mID="23" v:groupContext="shape" v:layerMember="0" transform="translate(187.403,-175.839)">
			<title>Dynamic connector.23</title>
			<desc>Wait for 3 secs for a new car</desc>
			<v:textBlock v:margins="rect(4,4,4,4)" v:tabSpace="42.5197"/>
			<v:textRect cx="-118.562" cy="637.978" width="98.37" height="41.6033"/>
			<path d="M4.29 841.89 L-118.56 841.89 L-118.56 439.65 L0.34 439.65" class="st8"/>
			<rect v:rectContext="textBkgnd" x="-160.575" y="621.178" width="84.0267" height="33.5998" class="st10"/>
			<text x="-160.58" y="633.78" class="st11" v:langID="2052"><v:paragraph v:horizAlign="1"/><v:tabList/>Wait for 3 secs <v:newlineChar/><tspan
						x="-155.85" dy="1.2em" class="st4">for a new car</tspan></text>		</g>
		<g id="shape24-83" v:mID="24" v:groupContext="shape" v:layerMember="0" transform="translate(392.701,-168.752)">
			<title>Dynamic connector.24</title>
			<desc>Power off</desc>
			<v:textBlock v:margins="rect(4,4,4,4)" v:tabSpace="42.5197"/>
			<v:textRect cx="50.0551" cy="834.803" width="70" height="24.8035"/>
			<path d="M0 834.8 L90.57 834.8" class="st8"/>
			<rect v:rectContext="textBkgnd" x="22.2742" y="826.403" width="55.562" height="16.8" class="st10"/>
			<text x="22.27" y="839" class="st11" v:langID="2052"><v:paragraph v:horizAlign="1"/><v:tabList/>Power off</text>		</g>
	</g>
</svg>
