<svg width="580" height="400" xmlns="http://www.w3.org/2000/svg">
 <!-- Created with Method Draw - http://github.com/duopixel/Method-Draw/ -->

 <g>
  <title>background</title>
  <rect fill="#fff" id="canvas_background" height="402" width="582" y="-1" x="-1"/>
  <g display="none" overflow="visible" y="0" x="0" height="100%" width="100%" id="canvasGrid">
   <rect fill="url(#gridpattern)" stroke-width="0" y="0" x="0" height="100%" width="100%"/>
  </g>
 </g>
 <g>
  <title>Layer 1</title>
  <style transform="matrix(0.025082266165014966,0,0,0.025082266165014966,0,0) " type="text/css">
   <![CDATA[
		.st1 {fill:url(#grad0-4);stroke:#3c63ac;stroke-width:0.75}
		.st2 {fill:#3c63ac;font-family:Calibri;font-size:1.5em;font-weight:bold}
		.st3 {fill:#4672c4;stroke:#c7c8c8;stroke-width:0.25}
		.st4 {fill:#feffff;font-family:Calibri;font-size:0.75em;font-weight:bold}
		.st5 {font-size:1em}
		.st6 {fill:#feffff;font-family:Calibri;font-size:0.833336em;font-weight:bold}
		.st7 {fill:#feffff;font-family:Calibri;font-size:1.00001em;font-weight:bold}
		.st8 {marker-end:url(#mrkr4-37);stroke:#4672c4;stroke-linecap:round;stroke-linejoin:round;stroke-width:1}
		.st9 {fill:#4672c4;fill-opacity:1;stroke:#4672c4;stroke-opacity:1;stroke-width:0.28409090909091}
		.st10 {fill:none;fill-rule:evenodd;font-size:12px;overflow:visible;stroke-linecap:square;stroke-miterlimit:3}
	]]>
  </style>

  <defs>
   <g id="svg_41">
    <path id="svg_44" d="m2,1l-2,-1l2,-1l0,2"/>
   </g>
  </defs>
  <g stroke="null" id="svg_79">
   <g stroke="null" transform="matrix(1.1778334286901606,0,0,1.1347279750689656,-12703.993945728515,-8464.448914948878) " id="svg_46">
    <title stroke="null" transform="translate(-548.859130859375,-370.23065185546875) translate(11298.7548828125,0) translate(0,7764.71435546875) ">Page-1</title>
    <g stroke="null" id="svg_39">
     <title stroke="null" transform="translate(-548.859130859375,-370.23065185546875) translate(11298.7548828125,0) translate(0,7764.71435546875) translate(228.75599670410156,-714.3309936523438) ">Rectangle</title>
     <desc stroke="null" transform="translate(-548.859130859375,-370.23065185546875) translate(11298.7548828125,0) translate(0,7764.71435546875) translate(228.75599670410156,-714.3309936523438) ">Sensors</desc>
     <rect stroke="null" id="svg_47" class="st1" height="57.7373" width="113.386" y="7464.30571" x="10978.651749"/>
     <text stroke="null" id="svg_48" class="st2" y="7498.57271" x="11006.511749">Sensors</text>
    </g>
    <g stroke="null" id="svg_38">
     <title stroke="null" transform="translate(-548.859130859375,-370.23065185546875) translate(11298.7548828125,0) translate(0,7764.71435546875) translate(228.75599670410156,-580.0579833984375) ">Rectangle.5</title>
     <desc stroke="null" transform="translate(-548.859130859375,-370.23065185546875) translate(11298.7548828125,0) translate(0,7764.71435546875) translate(228.75599670410156,-580.0579833984375) ">Raspi system</desc>
     <rect stroke="null" id="svg_49" class="st1" height="57.7373" width="113.386" y="7598.57872" x="10978.651749"/>
     <text stroke="null" id="svg_50" class="st2" y="7632.84572" x="10986.751749">Raspi system</text>
    </g>
    <g stroke="null" id="svg_37">
     <title stroke="null" transform="translate(-548.859130859375,-370.23065185546875) translate(11298.7548828125,0) translate(0,7764.71435546875) translate(47.90549850463867,-426.9129943847656) ">Rectangle.8</title>
     <desc stroke="null" transform="translate(-548.859130859375,-370.23065185546875) translate(11298.7548828125,0) translate(0,7764.71435546875) translate(47.90549850463867,-426.9129943847656) ">Mobile app</desc>
     <rect stroke="null" id="svg_51" class="st1" height="57.7373" width="113.386" y="7751.723709" x="10797.80125"/>
     <text stroke="null" id="svg_52" class="st2" y="7785.990709" x="10811.87125">Mobile app</text>
    </g>
    <g stroke="null" id="svg_36">
     <title stroke="null" transform="translate(-548.859130859375,-370.23065185546875) translate(11298.7548828125,0) translate(0,7764.71435546875) translate(413.00799560546875,-426.9129943847656) ">Rectangle.9</title>
     <desc stroke="null" transform="translate(-548.859130859375,-370.23065185546875) translate(11298.7548828125,0) translate(0,7764.71435546875) translate(413.00799560546875,-426.9129943847656) ">Firebase</desc>
     <rect stroke="null" id="svg_53" class="st1" height="57.7373" width="113.386" y="7751.723709" x="11162.903748"/>
     <text stroke="null" id="svg_54" class="st2" y="7785.990709" x="11188.133748">Firebase</text>
    </g>
    <g stroke="null" id="svg_35">
     <title stroke="null" transform="translate(-548.859130859375,-370.23065185546875) translate(11298.7548828125,0) translate(0,7764.71435546875) translate(228.75599670410156,-516.9849853515625) ">Rounded Rectangle</title>
     <desc stroke="null" transform="translate(-548.859130859375,-370.23065185546875) translate(11298.7548828125,0) translate(0,7764.71435546875) translate(228.75599670410156,-516.9849853515625) ">If Realtime data of car exceed dangerous limit, take photo of...</desc>
     <path stroke="null" id="svg_55" class="st3" d="m10989.991749,7719.388718l90.71,0a11.3384,11.3384 -180 0 0 11.34,-11.34l0,-13.09a11.3384,11.3384 -180 0 0 -11.34,-11.34l-90.71,0a11.3384,11.3384 -180 0 0 -11.34,11.34l0,13.09a11.3384,11.3384 -180 0 0 11.34,11.34z"/>
     <text stroke="null" id="svg_56" class="st4" y="7693.398718" x="10993.971749">If Realtime data of car
      <tspan stroke="null" id="svg_57" class="st5" dy="1.2em" x="10990.771749">exceed dangerous limit,</tspan>
      <tspan stroke="null" id="svg_58" class="st5" dy="1.2em" x="11003.311749">take photo of car</tspan></text>
    </g>
    <g stroke="null" id="svg_34">
     <title stroke="null" transform="translate(-548.859130859375,-370.23065185546875) translate(11298.7548828125,0) translate(0,7764.71435546875) translate(228.75599670410156,-658.177978515625) ">Rounded Rectangle.13</title>
     <desc stroke="null" transform="translate(-548.859130859375,-370.23065185546875) translate(11298.7548828125,0) translate(0,7764.71435546875) translate(228.75599670410156,-658.177978515625) ">Car velocity Car distance Bike velocity</desc>
     <path stroke="null" id="svg_59" class="st3" d="m10989.991749,7578.195725l90.71,0a11.3384,11.3384 -180 0 0 11.34,-11.34l0,-13.09a11.3384,11.3384 -180 0 0 -11.34,-11.34l-90.71,0a11.3384,11.3384 -180 0 0 -11.34,11.34l0,13.09a11.3384,11.3384 -180 0 0 11.34,11.34z"/>
     <text stroke="null" id="svg_60" class="st6" y="7551.305725" x="11011.101749">Car velocity
      <tspan stroke="null" id="svg_61" class="st5" dy="1.2em" x="11009.921749">Car distance</tspan>
      <tspan stroke="null" id="svg_62" class="st5" dy="1.2em" x="11009.041749">Bike velocity</tspan></text>
    </g>
    <g stroke="null" id="svg_33">
     <title stroke="null" transform="translate(-548.859130859375,-370.23065185546875) translate(11298.7548828125,0) translate(0,7764.71435546875) translate(37.1338996887207,-516.9849853515625) ">Rounded Rectangle.14</title>
     <desc stroke="null" transform="translate(-548.859130859375,-370.23065185546875) translate(11298.7548828125,0) translate(0,7764.71435546875) translate(37.1338996887207,-516.9849853515625) ">Car and bike data Photo and car plate</desc>
     <path stroke="null" id="svg_63" class="st3" d="m10800.519652,7719.388718l107.95,0a13.4927,13.4927 -180 0 0 13.49,-13.49l0,-8.79a13.4927,13.4927 -180 0 0 -13.49,-13.49l-107.95,0a13.4927,13.4927 -180 0 0 -13.49,13.49l0,8.79a13.4927,13.4927 -180 0 0 13.49,13.49z"/>
     <text stroke="null" id="svg_64" class="st7" y="7697.898718" x="10810.939652">Car and bike data
      <tspan stroke="null" id="svg_65" class="st5" dy="1.2em" x="10805.719652">Photo and car plate</tspan></text>
    </g>
    <g stroke="null" id="svg_32">
     <title stroke="null" transform="translate(-548.859130859375,-370.23065185546875) translate(11298.7548828125,0) translate(0,7764.71435546875) translate(278.36199951171875,-714.3309936523438) ">Dynamic connector</title>
     <path stroke="null" id="svg_66" class="st8" d="m11035.347751,7522.04271l0,13.34"/>
    </g>
    <g stroke="null" id="svg_31">
     <title stroke="null" transform="translate(-548.859130859375,-370.23065185546875) translate(11298.7548828125,0) translate(0,7764.71435546875) translate(278.36199951171875,-658.177978515625) ">Dynamic connector.16</title>
     <path stroke="null" id="svg_67" class="st8" d="m11035.347751,7578.195725l0,13.34"/>
    </g>
    <g stroke="null" id="svg_30">
     <title stroke="null" transform="translate(-548.859130859375,-370.23065185546875) translate(11298.7548828125,0) translate(0,7764.71435546875) translate(228.75599670410156,-608.927001953125) ">Dynamic connector.17</title>
     <path stroke="null" id="svg_68" class="st8" d="m10978.651749,7627.446702l-124.16,0l0,49.13"/>
    </g>
    <g stroke="null" id="svg_29">
     <title stroke="null" transform="translate(-548.859130859375,-370.23065185546875) translate(11298.7548828125,0) translate(0,7764.71435546875) translate(97.51180267333984,-516.9849853515625) ">Dynamic connector.18</title>
     <path stroke="null" id="svg_69" class="st8" d="m10854.497555,7719.388718l0,25.3"/>
    </g>
    <g stroke="null" id="svg_28">
     <title stroke="null" transform="translate(-548.859130859375,-370.23065185546875) translate(11298.7548828125,0) translate(0,7764.71435546875) translate(228.75599670410156,-426.9129943847656) ">Rectangle.7</title>
     <desc stroke="null" transform="translate(-548.859130859375,-370.23065185546875) translate(11298.7548828125,0) translate(0,7764.71435546875) translate(228.75599670410156,-426.9129943847656) ">Camera</desc>
     <rect stroke="null" id="svg_70" class="st1" height="57.7373" width="113.386" y="7751.723709" x="10978.651749"/>
     <text stroke="null" id="svg_71" class="st2" y="7785.990709" x="11006.641749">Camera</text>
    </g>
    <g stroke="null" id="svg_27">
     <title stroke="null" transform="translate(-548.859130859375,-370.23065185546875) translate(11298.7548828125,0) translate(0,7764.71435546875) translate(278.36199951171875,-484.6499938964844) ">Dynamic connector.25</title>
     <path stroke="null" id="svg_72" class="st8" d="m11035.347751,7751.72371l0,-25.3"/>
    </g>
    <g stroke="null" id="svg_26">
     <title stroke="null" transform="translate(-548.859130859375,-370.23065185546875) translate(11298.7548828125,0) translate(0,7764.71435546875) translate(278.36199951171875,-552.7559814453125) ">Dynamic connector.26</title>
     <path stroke="null" id="svg_73" class="st8" d="m11035.347751,7683.617722l0,-20.26"/>
    </g>
    <g stroke="null" id="svg_25">
     <title stroke="null" transform="translate(-548.859130859375,-370.23065185546875) translate(11298.7548828125,0) translate(0,7764.71435546875) translate(413.00799560546875,-516.9849853515625) ">Rounded Rectangle.29</title>
     <desc stroke="null" transform="translate(-548.859130859375,-370.23065185546875) translate(11298.7548828125,0) translate(0,7764.71435546875) translate(413.00799560546875,-516.9849853515625) ">Car photo Identified Car plate</desc>
     <path stroke="null" id="svg_74" class="st3" d="m11174.243748,7719.388718l90.71,0a11.3384,11.3384 -180 0 0 11.34,-11.34l0,-13.09a11.3384,11.3384 -180 0 0 -11.34,-11.34l-90.71,0a11.3384,11.3384 -180 0 0 -11.34,11.34l0,13.09a11.3384,11.3384 -180 0 0 11.34,11.34z"/>
     <text stroke="null" id="svg_75" class="st7" y="7697.898718" x="11194.993748">Car photo
      <tspan stroke="null" id="svg_76" class="st5" dy="1.2em" x="11171.633748">Identified Car plate</tspan></text>
    </g>
    <g stroke="null" id="svg_24">
     <title stroke="null" transform="translate(-548.859130859375,-370.23065185546875) translate(11298.7548828125,0) translate(0,7764.71435546875) translate(342.1419982910156,-608.927001953125) ">Dynamic connector.30</title>
     <path stroke="null" id="svg_77" class="st8" d="m11092.03775,7627.446702l127.56,0l0,49.13"/>
    </g>
    <g stroke="null" id="svg_23">
     <title stroke="null" transform="translate(-548.859130859375,-370.23065185546875) translate(11298.7548828125,0) translate(0,7764.71435546875) translate(462.614013671875,-516.9849853515625) ">Dynamic connector.31</title>
     <path stroke="null" id="svg_78" class="st8" d="m11219.599766,7719.388718l0,25.3"/>
    </g>
   </g>
  </g>
 </g>
</svg>